<svg xmlns="http://www.w3.org/2000/svg" width="24" height="24" viewBox="0 0 24 24">
<rect x="2" y="6" width="5" height="6" rx=".65" fill="#FF9B40" stroke="#171D29" stroke-width="1.2" paint-order="stroke"/>
<rect x="17" y="6" width="5" height="6" rx=".65" fill="#FF9B40" stroke="#171D29" stroke-width="1.2" paint-order="stroke"/>
<polyline points="10,6 10,7" fill="none" stroke="#171D29" stroke-width="4.1" stroke-linecap="round" stroke-linejoin="round"/>
<polyline points="10,6 10,7" fill="none" stroke="#FF9B40" stroke-width="2.2" stroke-linecap="round" stroke-linejoin="round"/>
<polyline points="14,6 14,7" fill="none" stroke="#171D29" stroke-width="4.1" stroke-linecap="round" stroke-linejoin="round"/>
<polyline points="14,6 14,7" fill="none" stroke="#FF9B40" stroke-width="2.2" stroke-linecap="round" stroke-linejoin="round"/>
<polyline points="10,11 10,12" fill="none" stroke="#171D29" stroke-width="4.1" stroke-linecap="round" stroke-linejoin="round"/>
<polyline points="10,11 10,12" fill="none" stroke="#FF9B40" stroke-width="2.2" stroke-linecap="round" stroke-linejoin="round"/>
<polyline points="14,11 14,12" fill="none" stroke="#171D29" stroke-width="4.1" stroke-linecap="round" stroke-linejoin="round"/>
<polyline points="14,11 14,12" fill="none" stroke="#FF9B40" stroke-width="2.2" stroke-linecap="round" stroke-linejoin="round"/>
<polyline points="12,15 12,20" fill="none" stroke="#171D29" stroke-width="4.1" stroke-linecap="round" stroke-linejoin="round"/>
<polyline points="12,15 12,20" fill="none" stroke="#FF9B40" stroke-width="2.2" stroke-linecap="round" stroke-linejoin="round"/>
<polyline points="9.5,18 12,20.5 14.5,18" fill="none" stroke="#171D29" stroke-width="4.1" stroke-linecap="round" stroke-linejoin="round"/>
<polyline points="9.5,18 12,20.5 14.5,18" fill="none" stroke="#FF9B40" stroke-width="2.2" stroke-linecap="round" stroke-linejoin="round"/>
</svg>